<?xml version="1.0" encoding="utf-8" ?><svg xmlns="http://www.w3.org/2000/svg" xmlns:xlink="http://www.w3.org/1999/xlink" width="605" height="605" viewBox="0 0 605 605"><path fill="#1C143E" d="M285.426 100.015C290.384 99.5801 297.193 99.9084 302.277 100.072C337.09 101.044 370.954 111.635 400.118 130.671C414.42 139.896 431.412 153.561 442.392 166.624C450.441 176.199 464.541 193.272 467.104 205.282C470.635 221.821 459.594 237.866 442.671 240.542C424.523 243.546 416.053 234.814 407.445 220.336C398.832 205.851 384.527 193.056 370.804 183.704C317.239 147.196 244.088 154.162 198.732 200.689C192.809 206.765 187.082 214.386 182.351 221.429C178.26 227.336 175.476 233.452 172.426 239.907C177.932 240.204 183.474 240.315 188.977 240.658C193.445 240.937 198.902 240.762 202.304 244.154C205.432 247.165 205.704 254.029 203.115 257.424C200.543 260.796 197.618 264.113 194.93 267.461L175.833 291.447L151.844 321.965C147.694 327.206 143.7 332.536 139.049 337.39C136.327 340.773 129.216 341.342 126.506 337.59C121.325 330.417 116.595 321.683 112.184 313.993L87.982 271.816C83.3008 263.556 78.0147 255.6 73.7219 247.167C70.4782 241.546 73.1724 233.47 80.3126 233.213C89.6558 232.877 100.643 234.298 109.908 235.533C111.912 228.571 114.643 221.964 117.462 215.302C145.075 150.034 213.925 102.321 285.426 100.015Z"/><path fill="#BD8D9F" d="M287.299 102.636C327.224 101.189 366.63 112.037 400.189 133.713C421.944 147.852 440.697 166.142 455.378 187.535C459.104 192.898 463.435 198.98 464.808 205.485C468.109 220.436 457.268 235.875 442.527 238.317C424.29 241.338 415.402 230.761 407.397 216.487C405.614 213.308 401.922 208.875 399.561 206.042C391.587 196.621 382.36 188.338 372.136 181.424C341.274 160.294 305.014 153.227 268.335 160.141C239.138 165.775 212.627 180.915 192.938 203.199C188.522 208.214 184.605 213.737 180.838 219.248C176.32 226.297 172.4 233.712 169.119 241.414C174.772 242.037 196.362 242.516 199.578 245.092C201.268 246.446 202.207 248.698 202.317 250.827C202.425 252.905 201.66 254.575 200.536 256.274C197.889 260.279 194.536 264.014 191.55 267.787L174.603 289.335L151.921 318.381C147.523 324.003 143.17 329.616 138.572 335.046C135.95 338.144 130.409 339.598 127.655 336.33C125.243 333.467 122.659 328.489 120.732 325.144L109.273 305.227C98.0852 285.781 86.8735 266.25 75.951 246.651C75.2392 245.374 74.885 243.227 75.0106 241.775C75.2013 239.771 76.2171 237.937 77.8143 236.713C78.6732 236.044 80.2526 235.262 81.2992 235.251C90.8697 235.146 102.634 236.591 112.123 237.574C113.041 233.419 114.679 228.917 116.152 224.904C124.206 203.328 136.282 183.477 151.74 166.405C178.246 137.109 212.997 116.52 251.423 107.343C264.045 104.439 274.508 103.285 287.299 102.636Z"/><path fill="#534592" d="M286.617 109.467C324.408 107.841 361.804 117.704 393.877 137.756C415.727 151.538 433.369 167.977 448.171 189.092C451.829 194.311 456.585 200.258 457.948 206.562C459.116 212.132 457.983 217.939 454.806 222.661C448.179 232.595 433.685 234.9 424.137 227.759C420.029 224.686 417.538 219.555 414.841 215.258C413.098 212.516 411.264 209.834 409.34 207.216C400.466 195.11 388.572 184.421 376.221 175.932C343.456 153.411 304.846 146.313 265.925 153.843C229.658 161.201 197.72 182.48 176.963 213.115C171.641 219.37 161.588 239.184 160.264 247.16C163.757 247.877 169.902 248.143 173.699 248.438L196.507 250.324C193.925 254.231 189.784 259.067 186.77 262.885L168.076 286.601L145.343 315.655C141.411 320.667 136.819 326.792 132.682 331.488C127.775 324.167 121.362 312.583 116.879 304.778L94.495 265.664C91.5719 260.469 82.5538 245.769 81.1709 241.481C91.7338 241.885 106.17 243.737 117.028 244.816C118.631 239.277 120.205 233.535 122.177 228.122C130.119 206.589 142.177 186.807 157.679 169.882C190.998 133.512 237.348 111.794 286.617 109.467Z"/><path fill="#BD8D9F" d="M412.8 373.884C408.61 373.582 404.332 373.279 400.103 372.782C394.062 372.073 385.583 372.032 382.224 365.946C380.002 361.921 381.295 356.957 384.243 353.683C386.711 350.942 389.292 348.218 391.719 345.406C400.679 334.96 409.719 324.584 418.839 314.277C423.536 308.908 450.467 276.456 453.941 274.555C455.858 273.506 458.271 272.988 460.38 273.716C462.331 274.39 463.917 275.791 465.205 277.366C469.346 282.431 474.725 294.637 477.896 300.991C479.68 303.737 482.116 308.63 483.728 311.672L494.109 331.274L500.616 343.441C501.346 344.807 503.525 348.772 503.956 350.012C505.913 353.549 507.84 357.613 509.805 360.897C513.531 367.126 520.21 378.176 511.105 383.341C505.142 386.723 491.18 382.297 484.309 382.101C483.261 382.072 479.826 381.559 478.98 381.32C478.132 381.236 477.568 381.059 476.88 381.509C474.896 386.006 473.328 390.514 471.152 394.939C460.254 416.838 445.336 436.492 427.175 452.878C425.401 454.395 418.799 460.062 417.363 461.13C413.527 463.981 394.875 477.342 391.223 478.458C384.651 482.989 367.047 490.231 359.495 492.764C309.481 509.833 254.716 506.171 207.42 482.596C182.169 469.989 156.588 448.513 139.739 426.026C136.059 421.115 131.264 414.603 129.378 408.872C127.3 402.555 127.64 392.9 130.884 387.008C134.549 380.354 140.93 375.223 148.225 372.982C160.191 369.307 172.275 372.284 181.142 381.119C183.99 383.956 186.861 388.803 189.444 392.125C192.596 396.179 195.789 399.736 199.373 403.414C208.484 412.694 218.969 420.517 230.458 426.61C253.246 438.962 280.822 445.645 306.749 443.023C343.005 439.358 379.393 421.245 401.697 392.031C406.04 386.342 409.403 380.159 412.8 373.884Z"/><defs><linearGradient id="gradient_0" gradientUnits="userSpaceOnUse" x1="343.97021" y1="496.61087" x2="293.45786" y2="320.89984"><stop offset="0" stop-color="#4B211F"/><stop offset="1" stop-color="#3A2032"/></linearGradient></defs><path fill="url(#gradient_0)" d="M412.8 373.884C408.61 373.582 404.332 373.279 400.103 372.782C394.062 372.073 385.583 372.032 382.224 365.946C380.002 361.921 381.295 356.957 384.243 353.683C386.711 350.942 389.292 348.218 391.719 345.406C400.679 334.96 409.719 324.584 418.839 314.277C423.536 308.908 450.467 276.456 453.941 274.555C455.858 273.506 458.271 272.988 460.38 273.716C462.331 274.39 463.917 275.791 465.205 277.366C469.346 282.431 474.725 294.637 477.896 300.991C477.016 300.541 477.329 300.314 476.397 300.213C476.35 300.646 476.378 300.9 476.435 301.325C474.95 300.075 468.667 285.343 466.536 283.9C464.011 279.609 462.209 275.534 456.476 276.698C454.338 277.133 453.177 279.015 451.636 280.421C445.889 286.808 440.217 293.384 434.605 299.902L405.894 333.175C401.381 338.352 396.812 343.481 392.189 348.56C388.59 352.557 382.842 357.131 384.011 362.805C384.34 364.405 385.98 366.84 387.596 367.641C394.466 369.684 410.546 371.58 417.475 372.024C414.24 377.735 411.361 382.905 407.548 388.251C389.368 413.839 362.978 432.436 332.766 440.951C297.313 450.815 259.392 446.154 227.383 428C216.149 421.623 205.908 413.638 196.984 404.3C193.543 400.716 190.286 396.961 187.224 393.05C179.483 383.018 175.579 375.94 161.736 373.894C142.138 370.998 125.638 388.5 131.134 407.821C133.131 414.81 138.059 420.067 142.359 425.713C158.939 447.458 180.085 465.167 204.245 478.122C249.368 502.337 302.246 507.693 351.308 493.017C359.223 490.618 366.972 487.703 374.506 484.291C377.355 483.006 382.423 480.251 384.85 479.304C385.126 479.661 385.251 479.739 385.587 480.042C387.802 479.972 388.524 477.656 391.223 478.458C384.651 482.989 367.047 490.231 359.495 492.764C309.481 509.833 254.716 506.171 207.42 482.596C182.169 469.989 156.588 448.513 139.739 426.026C136.059 421.115 131.264 414.603 129.378 408.872C127.3 402.555 127.64 392.9 130.884 387.008C134.549 380.354 140.93 375.223 148.225 372.982C160.191 369.307 172.275 372.284 181.142 381.119C183.99 383.956 186.861 388.803 189.444 392.125C192.596 396.179 195.789 399.736 199.373 403.414C208.484 412.694 218.969 420.517 230.458 426.61C253.246 438.962 280.822 445.645 306.749 443.023C343.005 439.358 379.393 421.245 401.697 392.031C406.04 386.342 409.403 380.159 412.8 373.884Z"/><defs><linearGradient id="gradient_1" gradientUnits="userSpaceOnUse" x1="450.8324" y1="416.34641" x2="455.54904" y2="419.66022"><stop offset="0" stop-color="#301B20"/><stop offset="1" stop-color="#5B2C2C"/></linearGradient></defs><path fill="url(#gradient_1)" d="M469.807 391.509C472.947 389.038 474.209 379.866 477.676 379.873L476.965 380.269C477.911 380.559 478.171 380.786 478.98 381.32C478.132 381.236 477.568 381.059 476.88 381.509C474.896 386.006 473.328 390.514 471.152 394.939C460.254 416.838 445.336 436.492 427.175 452.878C426.945 452.523 426.683 452.307 426.863 452.053C428.323 449.995 435.504 443.322 435.735 441.049C438.695 437.242 443.234 432.937 446.552 428.719C456.111 416.569 462.984 405.302 469.807 391.509Z"/><defs><linearGradient id="gradient_2" gradientUnits="userSpaceOnUse" x1="511.5733" y1="365.3302" x2="477.99658" y2="382.54266"><stop offset="0" stop-color="#31191F"/><stop offset="1" stop-color="#4E2728"/></linearGradient></defs><path fill="url(#gradient_2)" d="M503.956 350.012C505.913 353.549 507.84 357.613 509.805 360.897C513.531 367.126 520.21 378.176 511.105 383.341C505.142 386.723 491.18 382.297 484.309 382.101C483.261 382.072 479.826 381.559 478.98 381.32C478.171 380.786 477.911 380.559 476.965 380.269L477.676 379.873C474.209 379.866 472.947 389.038 469.807 391.509C471.665 387.118 473.012 382.639 475.194 378.408C485.147 379.492 495.492 381.436 505.472 382.163C510.571 382.46 514.739 377.265 512.931 372.503C510.637 366.46 506.926 359.666 503.707 354.112C503.573 352.982 503.833 351.2 503.956 350.012Z"/><path fill="#49232C" d="M466.536 283.9C468.667 285.343 474.95 300.075 476.435 301.325C476.378 300.9 476.35 300.646 476.397 300.213C477.329 300.314 477.016 300.541 477.896 300.991C479.68 303.737 482.116 308.63 483.728 311.672L494.109 331.274L500.616 343.441C501.346 344.807 503.525 348.772 503.956 350.012C503.833 351.2 503.573 352.982 503.707 354.112C500.618 347.975 496.898 341.397 493.616 335.296L478.091 306.259C475.502 301.444 468.336 288.536 466.536 283.9Z"/><path fill="#49232C" d="M435.735 441.049C435.504 443.322 428.323 449.995 426.863 452.053C426.683 452.307 426.945 452.523 427.175 452.878C425.401 454.395 418.799 460.062 417.363 461.13C413.527 463.981 394.875 477.342 391.223 478.458C388.524 477.656 387.802 479.972 385.587 480.042C385.251 479.739 385.126 479.661 384.85 479.304C386.055 478.549 387.431 477.827 388.672 477.135C403.455 468.894 417.288 459.309 429.275 447.306C431.227 445.351 433.405 443.026 435.507 441.24L435.735 441.049Z"/><path fill="#F39736" d="M457.858 283.743L458.274 283.877C460.153 285.666 474.388 313.73 476.648 317.993L500.818 363.471C502.862 367.36 505.639 371.536 506.889 375.707C503.562 375.725 499.699 374.944 496.343 374.578C488.137 373.684 479.053 371.964 470.875 371.553C469.276 374.206 468.188 377.865 467.037 380.826C465.626 384.435 464.047 387.976 462.306 391.439C451.602 413.544 436.423 433.183 417.729 449.112C379.964 481.665 330.768 497.796 281.06 493.924C240.006 490.639 201.174 473.931 170.562 446.379C163.266 439.803 157.058 433.003 150.708 425.555C143.551 416.846 134.285 407.143 137.91 394.948C139.417 389.836 142.902 385.538 147.591 383.006C154.391 379.374 163.454 379.654 169.885 383.838C176.398 388.075 180.948 396.901 186.333 403.025C204.664 423.875 227.382 438.606 253.836 446.654C290.646 457.719 330.341 453.75 364.232 435.615C386.442 423.728 404.871 406.45 418.116 385.033C419.9 382.148 427.428 370.203 425.814 367.459C421.651 364.892 396.573 362.977 390.123 362.173C393.711 356.839 398.44 351.961 402.742 347.159L417.093 330.85C430.625 315.369 444.097 298.811 457.858 283.743Z"/><path fill="#BD8D9F" d="M77.9323 207.326C103.422 149.312 150.519 103.518 209.224 79.6657C264.25 57.636 333.437 58.8954 387.771 82.2069C446.15 107.035 492.402 153.856 516.513 212.534C533.204 254.334 537.084 295.48 530.293 339.869C528.93 346.811 528.706 354.293 526.538 361.013C526.16 362.186 524.586 364.126 523.429 364.378C518.899 365.365 514.316 362.693 515.449 357.577C516.362 353.452 516.993 349.794 517.91 345.714C519.34 338.867 520.14 332.398 520.922 325.487C522.03 315.708 522.237 306.414 522.058 296.582C521.972 291.859 522.185 286.627 521.759 281.93C520.17 257.541 513.013 231.38 503.397 208.967C496.63 193.056 483.474 172.03 472.687 158.583C434.768 112.051 380.004 82.3783 320.315 76.0231C279.168 71.6811 237.613 78.5394 200.043 95.8727C180.311 105.206 165.054 115.475 148.187 129.022L143.389 132.973C142.069 134.186 140.555 135.647 139.202 136.783C135.519 141.126 130.7 144.957 126.998 149.365C110.913 168.509 96.6477 189.306 86.8452 212.404C85.1756 216.338 83.2208 223.087 80.7145 226.48C79.3426 228.337 70.9082 228.511 71.9783 223.449C73.1348 217.979 75.5181 212.439 77.9323 207.326Z"/><defs><linearGradient id="gradient_3" gradientUnits="userSpaceOnUse" x1="329.56332" y1="397.98276" x2="270.34164" y2="64.53241"><stop offset="0" stop-color="#1E0E20"/><stop offset="1" stop-color="#131039"/></linearGradient></defs><path fill="url(#gradient_3)" d="M77.9323 207.326C103.422 149.312 150.519 103.518 209.224 79.6657C264.25 57.636 333.437 58.8954 387.771 82.2069C446.15 107.035 492.402 153.856 516.513 212.534C533.204 254.334 537.084 295.48 530.293 339.869C528.93 346.811 528.706 354.293 526.538 361.013C526.16 362.186 524.586 364.126 523.429 364.378C518.899 365.365 514.316 362.693 515.449 357.577C516.362 353.452 516.993 349.794 517.91 345.714C519.34 338.867 520.14 332.398 520.922 325.487C522.03 315.708 522.237 306.414 522.058 296.582C521.972 291.859 522.185 286.627 521.759 281.93C522.41 281.183 522.368 280.94 522.35 280.001C522.216 273.148 520.095 265.62 520.387 258.857C520.708 260.397 521.156 260.649 521.228 262.37C521.33 264.807 521.847 267.646 522.176 270.1C522.76 274.301 523.212 278.519 523.532 282.748C523.684 281.663 523.714 280.52 523.768 279.42C524.34 281.736 524.728 291.861 524.795 294.405C525.303 309.248 524.335 324.104 521.906 338.756C520.68 345.755 518.602 353.303 517.555 359.925C519.728 362.352 519.998 362.451 523.218 362.255C523.781 358.431 525.269 354.293 526.054 350.421C545.943 252.324 504.12 152.713 418.311 100.646C404.674 92.2601 390.194 85.3278 375.111 79.9631C316.179 59.1678 251.417 62.5133 194.942 89.2701C138.531 115.998 95.0685 164.067 74.1386 222.876C74.0444 221.856 73.7659 221.053 73.8683 219.966C74.2113 216.326 78.3532 210.656 77.9323 207.326Z"/><path fill="#1C143E" d="M146.126 128.317C155.806 119.653 169.233 110.264 180.442 103.742C219.666 80.7909 264.844 70.0592 310.2 72.9189C349.794 75.1501 388.101 87.7801 421.257 109.536C429.059 114.633 436.42 120.123 443.58 126.065C444.328 126.686 445.944 128.11 446.723 128.57C461.026 142.096 474.027 154.878 484.838 171.543C487.236 175.24 489.79 179.648 492.347 183.141C492.859 184.122 493.091 184.504 493.731 185.407C495.616 189.252 503.77 203.207 504.485 206.272C503.918 207.39 503.782 207.765 503.397 208.967C496.63 193.056 483.474 172.03 472.687 158.583C434.768 112.051 380.004 82.3783 320.315 76.0231C279.168 71.6811 237.613 78.5394 200.043 95.8727C180.311 105.206 165.054 115.475 148.187 129.022C147.473 128.971 147.308 129.03 146.595 129.156L146.126 128.317Z"/><path fill="#1C143E" d="M133.88 139.59L134.183 139.74C135.021 139.47 138.562 135.889 139.59 134.996L139.85 135.031C139.126 136.148 139.286 135.569 139.202 136.783C135.519 141.126 130.7 144.957 126.998 149.365C110.913 168.509 96.6477 189.306 86.8452 212.404C85.1756 216.338 83.2208 223.087 80.7145 226.48C79.3426 228.337 70.9082 228.511 71.9783 223.449C73.1348 217.979 75.5181 212.439 77.9323 207.326C78.3532 210.656 74.2113 216.326 73.8683 219.966C73.7659 221.053 74.0444 221.856 74.1386 222.876C73.9436 224.295 73.7599 224.338 74.2974 225.438C75.5533 226.328 77.642 226.087 79.2799 226.098C82.3577 218.682 84.4518 212.069 88.0377 204.508C97.0594 185.487 108.663 167.725 122.464 151.823C124.971 148.934 131.193 141.745 133.88 139.59Z"/><defs><linearGradient id="gradient_4" gradientUnits="userSpaceOnUse" x1="510.4552" y1="233.84091" x2="514.14032" y2="232.55969"><stop offset="0" stop-color="#020013"/><stop offset="1" stop-color="#1C133A"/></linearGradient></defs><path fill="url(#gradient_4)" d="M503.397 208.967C503.782 207.765 503.918 207.39 504.485 206.272C505.133 207.671 506.572 211.004 507.31 212.155L507.446 212.609C508.914 217.404 511.838 223.494 513.541 228.802C518.173 243.244 523.263 264.317 523.768 279.42C523.714 280.52 523.684 281.663 523.532 282.748C523.212 278.519 522.76 274.301 522.176 270.1C521.847 267.646 521.33 264.807 521.228 262.37C521.156 260.649 520.708 260.397 520.387 258.857C520.095 265.62 522.216 273.148 522.35 280.001C522.368 280.94 522.41 281.183 521.759 281.93C520.17 257.541 513.013 231.38 503.397 208.967Z"/><path fill="#B58196" d="M446.723 128.57C451.195 129.848 457.608 138.618 461.771 141.233C463.132 142.235 465.305 145.338 466.523 146.127C471.197 149.152 474.65 153.7 477.845 158.211C482.979 165.461 490.848 174.193 492.347 183.141C489.79 179.648 487.236 175.24 484.838 171.543C474.027 154.878 461.026 142.096 446.723 128.57Z"/><path fill="#B58196" d="M493.731 185.407C493.933 184.747 493.791 184.96 494.234 184.466C497.24 185.665 507.656 208.993 507.31 212.155C506.572 211.004 505.133 207.671 504.485 206.272C503.77 203.207 495.616 189.252 493.731 185.407Z"/><path fill="#1D1126" d="M142.919 131.16C143.609 131.917 143.398 131.628 143.389 132.973C142.069 134.186 140.555 135.647 139.202 136.783C139.286 135.569 139.126 136.148 139.85 135.031L139.59 134.996C138.562 135.889 135.021 139.47 134.183 139.74L133.88 139.59C135.759 137.343 140.597 133.155 142.919 131.16Z"/><path fill="#1C143E" d="M146.126 128.317L146.595 129.156C147.308 129.03 147.473 128.971 148.187 129.022L143.389 132.973C143.398 131.628 143.609 131.917 142.919 131.16C143.564 130.325 145.24 129.051 146.126 128.317Z"/><path fill="#BD8D9F" d="M60.5332 280.257C60.662 274.444 61.8049 258.821 64.5524 253.953C65.6057 252.086 73.9002 252.497 73.0056 259.397C71.558 270.564 69.8816 281.443 69.2985 292.744C68.6155 307.648 69.5288 322.583 72.0227 337.294C82.0494 402.063 119.777 459.258 175.37 493.97C188.105 501.729 201.519 508.311 215.448 513.634C220.211 515.44 226.708 517.119 230.99 518.897C246.797 523.071 260.642 526.255 276.989 527.543C288.722 528.62 301.768 528.921 313.525 527.67C330.975 526.085 348.211 522.667 364.945 517.473C366.903 516.295 373.797 514.417 376.533 513.282C401.994 502.725 426.531 488.698 447.574 470.819C455.169 464.367 461.573 456.964 468.311 449.798C481.654 432.927 489.252 421.714 499.696 402.935C502.119 397.23 506.044 384.111 514.212 391.732C516.143 393.534 510.052 405.699 508.912 407.93C499.989 425.402 487.718 443.471 474.776 458.152C459.549 475.425 439.359 492.372 419.492 504.033C402.105 514.015 385.209 522.466 365.853 527.938C363.569 528.584 357.001 530.713 354.792 530.95C353.254 531.503 350.275 532.147 348.581 532.464C346.96 532.761 344.497 533.298 342.932 533.493C328.529 535.779 314.726 538.08 300.045 537.899C297.18 537.864 293.373 538.004 290.57 537.701C278.372 537.882 248.634 534.157 236.967 530.552C221.576 527.508 193.46 516.657 180.256 508.26C176.276 507.179 156.154 492.563 151.422 489.06C140.24 480.46 128.713 470.479 119.637 459.651C117.89 458.113 112.397 451.149 110.795 449.118C106.028 443.387 100.951 436.717 97.0607 430.376C94.4276 426.756 90.1129 418.867 87.9407 414.833C75.7564 393.402 67.3915 370.017 63.2199 345.72C62.8604 344.437 62.154 339.977 61.9604 338.552C59.5219 320.602 58.9847 298.298 60.5332 280.257Z"/><path fill="#1D1126" d="M60.5332 280.257C60.662 274.444 61.8049 258.821 64.5524 253.953C65.6057 252.086 73.9002 252.497 73.0056 259.397C71.558 270.564 69.8816 281.443 69.2985 292.744C68.6155 307.648 69.5288 322.583 72.0227 337.294C82.0494 402.063 119.777 459.258 175.37 493.97C188.105 501.729 201.519 508.311 215.448 513.634C220.211 515.44 226.708 517.119 230.99 518.897L231.801 519.649C226.329 520.178 218.286 515.321 214.38 515.378C213.749 515.323 209.934 513.791 209.189 513.496C196.637 508.524 185.761 502.488 174.28 495.564C172.116 493.905 168.456 491.684 166.085 490.093C161.453 486.969 156.93 483.685 152.524 480.248C127.332 460.311 109.009 436.394 93.1822 408.772C90.5553 404.123 88.1721 398.747 86.006 393.869C72.1993 362.574 65.7504 328.53 67.1547 294.354C67.6809 281.012 69.3158 270.627 71.3534 257.584C70.0841 256.23 68.3661 254.611 66.3564 255.376C64.3847 256.991 62.4703 278.862 61.8604 282.631L61.5015 282.17C60.891 281.401 60.9047 281.188 60.5332 280.257Z"/><path fill="#28131C" d="M499.696 402.935C502.119 397.23 506.044 384.111 514.212 391.732C516.143 393.534 510.052 405.699 508.912 407.93C499.989 425.402 487.718 443.471 474.776 458.152C459.549 475.425 439.359 492.372 419.492 504.033L415.304 504.029C423.431 498.928 431.456 493.778 439.103 487.961C469.733 464.594 494.202 434.109 510.389 399.149C510.419 397.2 511.157 394.541 510.344 393.31C508.889 392.807 507.751 393.459 506.202 393.987C505.435 395.785 501.056 405.205 500.056 406.47C495.943 414.068 491.478 421.469 486.673 428.648C484.506 431.889 481.973 435.172 479.907 438.367C479.126 439.306 476.519 442.671 475.861 443.157C473.415 443.836 470.888 449.414 468.311 449.798C481.654 432.927 489.252 421.714 499.696 402.935Z"/><path fill="#B58196" d="M506.202 393.987C506.535 393.304 506.766 392.443 507.566 392.224C509.689 391.642 510.944 390.927 512.397 392.957C512.802 395.329 511.645 397.013 510.389 399.149C510.419 397.2 511.157 394.541 510.344 393.31C508.889 392.807 507.751 393.459 506.202 393.987Z"/><path fill="#2F1220" d="M468.311 449.798C470.888 449.414 473.415 443.836 475.861 443.157C471.759 449.164 465.072 456.011 460.031 461.274C457.649 463.761 454.54 466.517 452.305 469.058C448.954 471.8 445.848 474.921 442.463 477.644C437.414 481.706 432.034 485.421 426.913 489.374C411.939 499.837 395.747 508.437 378.694 514.985C375.619 516.171 370.04 518.34 366.863 519.153C365.758 518.559 362.838 519.705 360 519.626C361.723 519.218 363.946 518.913 364.945 517.473C366.903 516.295 373.797 514.417 376.533 513.282C401.994 502.725 426.531 488.698 447.574 470.819C455.169 464.367 461.573 456.964 468.311 449.798Z"/><path fill="#B58196" d="M93.1822 408.772C109.009 436.394 127.332 460.311 152.524 480.248C156.93 483.685 161.453 486.969 166.085 490.093C168.456 491.684 172.116 493.905 174.28 495.564C168.115 495.057 159.023 487.143 153.744 483.787C146.14 478.953 139.729 472.226 133.438 465.824C127.758 459.981 121.49 454.281 116.633 447.704C113.041 442.839 109.71 437.769 105.899 433.003C103.709 430.264 103.181 426.972 100.324 424.389C97.2538 421.613 94.9632 415.937 93.2063 412.174C92.6126 410.834 92.8512 410.217 93.1822 408.772Z"/><path fill="#2F1220" d="M151.868 487.17C160.059 493.128 168.137 498.96 176.93 503.996C177.934 504.572 179.71 505.553 180.551 506.211C201.072 517.019 215.39 523.456 238.304 529.126C240.427 531.187 254.634 532.887 258.359 533.924C259.793 534.323 262.414 534.322 263.83 534.919C260.496 534.774 236.729 530.311 237.166 530.203L236.967 530.552C221.576 527.508 193.46 516.657 180.256 508.26C176.276 507.179 156.154 492.563 151.422 489.06C151.358 488.005 151.329 488.074 151.868 487.17Z"/><defs><linearGradient id="gradient_5" gradientUnits="userSpaceOnUse" x1="384.92032" y1="516.4278" x2="386.41364" y2="519.91455"><stop offset="0" stop-color="#130005"/><stop offset="1" stop-color="#28101D"/></linearGradient></defs><path fill="url(#gradient_5)" d="M355.496 529.05C376.417 523.291 396.515 514.882 415.304 504.029L419.492 504.033C402.105 514.015 385.209 522.466 365.853 527.938C363.569 528.584 357.001 530.713 354.792 530.95L354.773 530.567L353.721 530.251C353.759 530.195 355.133 529.349 355.496 529.05Z"/><defs><linearGradient id="gradient_6" gradientUnits="userSpaceOnUse" x1="69.980278" y1="374.20923" x2="75.281891" y2="372.08789"><stop offset="0" stop-color="#000004"/><stop offset="1" stop-color="#040018"/></linearGradient></defs><path fill="url(#gradient_6)" d="M63.5274 337.564C67.9443 363.405 75.3413 389.788 88.5197 412.658L87.9407 414.833C75.7564 393.402 67.3915 370.017 63.2199 345.72C63.3037 343.001 63.4062 340.282 63.5274 337.564Z"/><path fill="#28131C" d="M313.525 527.67C330.975 526.085 348.211 522.667 364.945 517.473C363.946 518.913 361.723 519.218 360 519.626C362.838 519.705 365.758 518.559 366.863 519.153C348.425 525.225 329.258 528.807 309.871 529.805C310.433 529.526 310.515 529.532 311.129 529.434L311.369 529.079C310.962 528.908 310.557 528.764 310.133 528.642C312.061 528.145 312.008 528.848 313.525 527.67Z"/><defs><linearGradient id="gradient_7" gradientUnits="userSpaceOnUse" x1="253.47705" y1="526.0733" x2="254.22835" y2="522.79419"><stop offset="0" stop-color="#3E202D"/><stop offset="1" stop-color="#18040E"/></linearGradient></defs><path fill="url(#gradient_7)" d="M214.38 515.378C218.286 515.321 226.329 520.178 231.801 519.649L230.99 518.897C246.797 523.071 260.642 526.255 276.989 527.543L277.385 528.539C278.722 529.103 279.406 529.272 280.827 529.642C267.838 529.438 253.145 526.678 240.539 523.783C236.755 522.689 232.956 521.647 229.144 520.657C224.888 518.825 219.239 517.551 214.38 515.378Z"/><path fill="#010007" d="M60.5332 280.257C60.9047 281.188 60.891 281.401 61.5015 282.17L61.8604 282.631C61.0872 295.433 60.87 306.838 61.6868 319.717C62.0552 325.524 63.2599 332.193 63.5274 337.564C63.4062 340.282 63.3037 343.001 63.2199 345.72C62.8604 344.437 62.154 339.977 61.9604 338.552C59.5219 320.602 58.9847 298.298 60.5332 280.257Z"/><path fill="#2F1220" d="M341.427 532.154C343.281 531.737 344.832 531.427 346.706 531.127C347.613 531.624 348.018 531.687 348.581 532.464C346.96 532.761 344.497 533.298 342.932 533.493C328.529 535.779 314.726 538.08 300.045 537.899C297.18 537.864 293.373 538.004 290.57 537.701L292.745 537.432C292.437 537.292 291.114 537.351 290.676 537.352C295.142 536.717 299.507 537.057 303.415 536.465C309.985 536.011 316.587 535.698 323.124 534.912C329.247 534.176 335.32 533.054 341.427 532.154Z"/><path fill="#1D1126" d="M119.637 459.651C119.624 458.902 119.287 457.979 118.743 457.454L119.26 457.634L119.794 457.505C123.163 460.719 126.389 464.543 129.753 467.864C136.731 474.737 144.116 481.184 151.868 487.17C151.329 488.074 151.358 488.005 151.422 489.06C140.24 480.46 128.713 470.479 119.637 459.651Z"/><path fill="#49232C" d="M238.304 529.126C245.743 530.825 253.065 532.434 260.617 533.618C274.749 535.834 289.123 536.393 303.415 536.465C299.507 537.057 295.142 536.717 290.676 537.352C291.114 537.351 292.437 537.292 292.745 537.432L290.57 537.701C278.372 537.882 248.634 534.157 236.967 530.552L237.166 530.203C236.729 530.311 260.496 534.774 263.83 534.919C262.414 534.322 259.793 534.323 258.359 533.924C254.634 532.887 240.427 531.187 238.304 529.126Z"/><path fill="#1D1126" d="M88.5197 412.658C91.063 417.109 93.6654 421.827 96.3657 426.16C101.429 433.78 106.731 441.571 112.496 448.689L110.795 449.118C106.028 443.387 100.951 436.717 97.0607 430.376C94.4276 426.756 90.1129 418.867 87.9407 414.833L88.5197 412.658Z"/><path fill="#B47C86" d="M475.861 443.157C476.519 442.671 479.126 439.306 479.907 438.367C478.194 445.558 461.058 463.307 454.769 468.709C455.057 467.724 455.992 466.911 456.701 466.158L456.641 466.042C455.402 466.945 453.551 468.833 452.305 469.058C454.54 466.517 457.649 463.761 460.031 461.274C465.072 456.011 471.759 449.164 475.861 443.157Z"/><path fill="#010007" d="M276.989 527.543C288.722 528.62 301.768 528.921 313.525 527.67C312.008 528.848 312.061 528.145 310.133 528.642C310.557 528.764 310.962 528.908 311.369 529.079L311.129 529.434C310.515 529.532 310.433 529.526 309.871 529.805C300.193 530.485 290.499 530.216 280.827 529.642C279.406 529.272 278.722 529.103 277.385 528.539L276.989 527.543Z"/><path fill="#B58196" d="M452.305 469.058C453.551 468.833 455.402 466.945 456.641 466.042L456.701 466.158C455.992 466.911 455.057 467.724 454.769 468.709C449.587 474.763 436.855 484.675 429.633 488.743C429.187 488.994 427.497 489.279 426.913 489.374C432.034 485.421 437.414 481.706 442.463 477.644C445.848 474.921 448.954 471.8 452.305 469.058Z"/><path fill="#28131C" d="M110.795 449.118L112.496 448.689C114.751 451.521 117.752 454.804 119.794 457.505L119.26 457.634L118.743 457.454C119.287 457.979 119.624 458.902 119.637 459.651C117.89 458.113 112.397 451.149 110.795 449.118Z"/><path fill="#B58196" d="M229.144 520.657C232.956 521.647 236.755 522.689 240.539 523.783C236.551 523.998 231.771 524.638 229.144 520.657Z"/><path fill="#28131C" d="M346.706 531.127C349.629 530.405 352.559 529.713 355.496 529.05C355.133 529.349 353.759 530.195 353.721 530.251L354.773 530.567L354.792 530.95C353.254 531.503 350.275 532.147 348.581 532.464C348.018 531.687 347.613 531.624 346.706 531.127Z"/></svg>