<svg xmlns="http://www.w3.org/2000/svg" width="605" height="605" viewBox="0 0 605 605"><path fill="#83e46e" d="M263.915 95.515c18.597-3.465 34.744-4.233 53.595-2.263 5.943.621 14.806 1.677 20.416 3.309 11.739 2.133 24.033 6.128 35.063 10.667.853.351 4.135 1.74 4.593 2.161 6.529 2.37 22.762 11.561 28.59 15.569 18.932 13.106 35.474 27.688 49.411 46.036 2.616 3.444 7.032 9.228 8.94 13.074 5.64 9.119 8.239 14.955 5.852 26.232-.473 2.237-2.078 6.274-3.433 8.086-1.068 3.442-7.307 8.261-10.358 10.058a30.64 30.64 0 0 1-23.285 3.279c-9.131-2.458-14.318-7.28-18.919-15.298-7.809-12.111-11.5-17.923-22.337-28.306-4.34-3.985-10.693-8.504-15.532-11.913-17.481-12.314-36.076-19.681-57.147-23.276-5.598-.955-11.809-1.296-17.508-1.738-15.29-.245-36.316 2.362-50.528 8.536a140.4 140.4 0 0 0-57.075 41.505c-1.476 1.804-10.267 14.749-10.632 15.019-2.607 4.96-5.856 11.262-8.537 15.999l3.01.083c4.025.219 8.041.504 12.068.716 3.808.201 7.888.023 11.599.895 5.998 2.363 8.158 6.543 6.319 12.763-1.747 3.462-13.781 17.841-16.842 21.769a2688 2688 0 0 1-25.533 32.456c-2.614 3.294-7.949 10.675-10.461 13.34-2.333 3.597-8.247 10.178-11.059 13.706-2.188 2.354-5.028 3.661-8.142 3.691-6.106.06-8.311-6.19-11.031-10.931l-9.041-15.714a2715 2715 0 0 1-27.05-47.526c-3.288-5.949-6.803-11.54-9.842-17.745-2.008-4.102-1.58-8.636 1.862-12.025 1.252-1.001 3.775-1.757 5.304-1.756 9.43.005 19.171 1.586 28.542 2.554 3.506-15.308 14.472-37.16 23.184-50.114a196.66 196.66 0 0 1 125.944-82.898"/><path fill="#040605" d="m263.915 95.515 1.032.197c.4.757.301.335.008 1.366-52.647 10.134-95.963 38.352-126.123 82.776-8.722 12.847-19.723 34.294-22.684 49.677-7.705-1.533-15.911-2.011-23.737-2.824-2.327-.241-4.423-.218-6.678-.116-6.099.277-8.273 7.51-5.759 12.311 3.028 5.893 6.303 11.554 9.551 17.323a2148 2148 0 0 0 22.851 39.543 1573 1573 0 0 1 11.263 19.78c2.433 4.3 4.85 8.919 7.768 12.886 2.167 2.946 7.724 2.311 10.248.005 4.997-4.564 8.559-11.4 13.289-16.123-.516 1.813-2.194 3.077-3.092 4.915 1.273-1.069 2.009-1.925 2.979-3.282l.413.324c-2.333 3.597-8.247 10.178-11.059 13.706-2.188 2.354-5.028 3.661-8.142 3.691-6.106.06-8.311-6.19-11.031-10.931l-9.041-15.714a2715 2715 0 0 1-27.05-47.526c-3.288-5.949-6.803-11.54-9.842-17.745-2.008-4.102-1.58-8.636 1.862-12.025 1.252-1.001 3.775-1.757 5.304-1.756 9.43.005 19.171 1.586 28.542 2.554 3.506-15.308 14.472-37.16 23.184-50.114a196.66 196.66 0 0 1 125.944-82.898"/><defs><linearGradient id="a" x1="345.582" x2="349.735" y1="169.409" y2="159.866" gradientUnits="userSpaceOnUse"><stop offset="0" stop-color="#0d2312"/><stop offset="1" stop-color="#223c22"/></linearGradient></defs><path fill="url(#a)" d="M300.97 149.732c5.957.176 11.738.335 17.648 1.158a137.54 137.54 0 0 1 74.425 36.16l-1 1.069c-4.34-3.985-10.693-8.504-15.532-11.913-17.481-12.314-36.076-19.681-57.147-23.276-5.598-.955-11.809-1.296-17.508-1.738.107-.36.056-.418.038-.817z"/><defs><linearGradient id="b" x1="210.06" x2="217.25" y1="182.5" y2="192.014" gradientUnits="userSpaceOnUse"><stop offset="0" stop-color="#213824"/><stop offset="1"/></linearGradient></defs><path fill="url(#b)" d="M180.307 219.52c2.249-4.955 7.849-12.82 11.199-17.227 16.276-21.419 34.614-34.065 59.313-44.008l.509 1.443a140.4 140.4 0 0 0-57.075 41.505c-1.476 1.804-10.267 14.749-10.632 15.019-1.485.593-1.668 2.2-3.033 3.665z"/><defs><linearGradient id="c" x1="182.746" x2="176.01" y1="284.071" y2="279.655" gradientUnits="userSpaceOnUse"><stop offset="0" stop-color="#191f1c"/><stop offset="1" stop-color="#001805"/></linearGradient></defs><path fill="url(#c)" d="M206.799 243.651c.005 1.502-.251 1.608.431 2.632l.85.425c-1.747 3.462-13.781 17.841-16.842 21.769a2688 2688 0 0 1-25.533 32.456c-2.614 3.294-7.949 10.675-10.461 13.34l-.413-.324c-.97 1.357-1.706 2.213-2.979 3.282.898-1.838 2.576-3.102 3.092-4.915.641-1.302 7.325-9.497 8.661-11.223a1961 1961 0 0 1 24.48-31.433l9.957-12.588c3.018-3.789 7.729-8.809 8.757-13.421"/><path fill="#15261f" d="M263.915 95.515c18.597-3.465 34.744-4.233 53.595-2.263 5.943.621 14.806 1.677 20.416 3.309-1.427 1.196-2.933.359-4.809.602-1.203-.028-5.965-.832-7.383-1.04a185 185 0 0 0-13.38-1.549c-17.205-1.338-30.575.108-47.399 2.504.293-1.031.392-.609-.008-1.366z"/><path fill="#15261f" d="M406.172 124.958c18.932 13.106 35.474 27.688 49.411 46.036 2.616 3.444 7.032 9.228 8.94 13.074-.165.434-.552 1.366-.657 1.768-1.006-1.179-2.58-3.719-3.483-5.084-15.103-22.828-34.333-40.874-57.164-55.793z"/><defs><linearGradient id="d" x1="430.144" x2="450.732" y1="203.635" y2="231.9" gradientUnits="userSpaceOnUse"><stop offset="0" stop-color="#060003"/><stop offset="1" stop-color="#16271d"/></linearGradient></defs><path fill="url(#d)" d="M414.906 214.253c5.249 7.963 9.558 13.751 19.72 15.898a29.72 29.72 0 0 0 22.713-4.229c3.812-2.494 6.093-5.329 8.636-9.099.289.811.275 1.084.967 1.563-1.068 3.442-7.307 8.261-10.358 10.058a30.64 30.64 0 0 1-23.285 3.279c-9.131-2.458-14.318-7.28-18.919-15.298l.183-.304c-.017-.987-.002-.931.343-1.868"/><path fill="#1c3423" d="M337.926 96.56c11.739 2.135 24.033 6.129 35.063 10.668.853.351 4.135 1.74 4.593 2.161.567.73 1.366 1.68 1.819 2.454-6.621-2.675-12.907-5.389-19.709-7.63-8.803-2.901-17.552-5.025-26.575-7.05 1.876-.243 3.382.594 4.809-.602"/><path fill="#040605" d="M250.819 158.285c17.529-6.242 31.5-8.589 50.151-8.553l.924.643c.018.399.069.457-.038.817-15.29-.245-36.316 2.362-50.528 8.536z"/><path fill="#040605" d="M393.043 187.05c10.6 10.431 14.144 14.506 21.863 27.203-.345.937-.36.881-.343 1.868l-.183.304c-7.809-12.111-11.5-17.923-22.337-28.306z"/><path fill="#040605" d="M464.523 184.068c5.64 9.119 8.239 14.955 5.852 26.232-.473 2.237-2.078 6.274-3.433 8.086-.692-.479-.678-.752-.967-1.563a26.5 26.5 0 0 0 2.888-7.241c2.124-9.03-.252-16.19-4.997-23.746.105-.402.492-1.334.657-1.768"/><path fill="#1c3423" d="M377.582 109.389c6.529 2.37 22.762 11.561 28.59 15.569l-2.953.001c-7.345-4.873-15.9-9.3-23.818-13.116-.453-.774-1.252-1.724-1.819-2.454"/><path fill="#1c3423" d="M178.094 232.334c4.025.219 8.041.504 12.068.716 3.808.201 7.888.023 11.599.895l-.747.534c.096.832-.034.468.465 1.081a254 254 0 0 0-16.339-1.384c-3.281-.193-8.33-.329-11.448-.823 1.894-.183 3.19.512 4.402-1.019"/><path fill="#040605" d="M201.761 233.945c5.998 2.363 8.158 6.543 6.319 12.763l-.85-.425c-.682-1.024-.426-1.13-.431-2.632-.224-4.228-1.478-6.314-5.32-8.091-.499-.613-.369-.249-.465-1.081z"/><path fill="#040605" d="m180.307 219.52.281.397c1.365-1.465 1.548-3.072 3.033-3.665-2.607 4.96-5.856 11.262-8.537 15.999l3.01.083c-1.212 1.531-2.508.836-4.402 1.019-.061-1.838 5.242-11.93 6.615-13.833"/><path fill="#83e46e" d="M390.837 361.499c-3.673-1.442-5.028-5.08-5.288-8.79-.356-5.07 3.394-8.145 6.529-11.505 2.837-3.041 5.909-5.974 8.664-9.097a13684 13684 0 0 1 24.229-27.374 865 865 0 0 0 18.643-21.527c3.941-4.646 8.04-9.656 12.334-13.968 2.518-2.528 5.004-2.227 8.302-2.071 2.78.677 4.539 1.326 6.032 4 3.716 6.652 7.258 13.914 10.764 20.647 1.072 2.06 7.06 12.841 7.427 14.214.895 1.464 3.778 6.693 4.43 8.246 5.866 10.567 11.323 21.204 17.029 31.847 2.966 5.368 5.27 10.715 8.107 16.041.681 1.33.783 2.357 1.063 3.819-.247 5.128-2.558 8.375-7.547 9.914-2.636.033-5.259-.307-7.883-.584-7.311-.812-17.329-3.018-23.847-3.516-.717 2.896-1.749 5.27-2.861 8.02-2.784 6.99-11.643 24.696-16.445 30.31-24.703 38.682-70.956 69.706-115.601 79.612l-1.047.229c-5.649 1.388-12.437 2.722-18.225 3.437-15.163 2.015-37.079 2.875-52.128-.077-6.025-.072-23.447-4.476-29.198-6.383-1.754-.289-5.888-1.799-7.756-2.424-9.035-3.024-17.202-6.582-25.681-10.898a135 135 0 0 1-7.566-4.111c-7.449-3.773-19.53-12.733-25.983-17.961a212.7 212.7 0 0 1-37.57-39.274c-1.963-2.66-6.37-8.74-6.719-12.056-2.137-4.696-2.033-12.824-.033-17.613 6.228-15.027 24.676-23.464 40.032-17.517 12.983 5.028 17.925 17.687 26.872 27.458 22.664 24.753 49.691 36.473 82.041 42.597 3.656.061 7.994.841 11.797 1.13 3.695-.187 7.806.091 11.636-.107 4.485-.231 8.388-.769 12.844-1.351 31.074-5.937 58.028-18.154 79.613-41.418 1.324-1.427 3.353-3.777 4.783-4.984l.339-.281c3.85-5.393 6.608-8.475 10.446-14.434.294-.669 4.366-6.994 4.949-7.939-4.441-.306-24.315-2.387-27.527-4.261"/><defs><linearGradient id="e" x1="188.113" x2="215.908" y1="437.039" y2="391.132" gradientUnits="userSpaceOnUse"><stop offset="0" stop-color="#0b120d"/><stop offset="1" stop-color="#1f3629"/></linearGradient></defs><path fill="url(#e)" d="M133.045 400.219c-2.137-4.696-2.033-12.824-.033-17.613 6.228-15.027 24.676-23.464 40.032-17.517 12.983 5.028 17.925 17.687 26.872 27.458 22.664 24.753 49.691 36.473 82.041 42.597-1.412.396-1.943.3-3.424.192.659.83.861.613 1.659 1.271-2.972-.338-7.854-1.397-10.825-2.056a136.7 136.7 0 0 1-69.976-39.917c-12.642-13.749-17.153-30.158-39.225-29.054a28.56 28.56 0 0 0-19.947 9.548c-5.484 6.167-6.684 13.309-6.25 21.282-1.437 2.317 1.495 6.199 2.023 9.017-.594-1.183-2.108-4.562-2.947-5.208"/><defs><linearGradient id="f" x1="418.556" x2="387.566" y1="461.718" y2="436.472" gradientUnits="userSpaceOnUse"><stop offset="0" stop-color="#263428"/><stop offset="1" stop-color="#000400"/></linearGradient></defs><path fill="url(#f)" d="M342.774 488.638c7.826-2.04 15.475-4.117 23.075-6.919a194.8 194.8 0 0 0 93.506-72.759c1.099.573.773.155 1.164 1.165-24.703 38.682-70.956 69.706-115.601 79.612l-1.047.229c-.99-.781-.701-.309-1.097-1.328"/><path fill="#040605" d="M390.837 361.499c-3.673-1.442-5.028-5.08-5.288-8.79-.356-5.07 3.394-8.145 6.529-11.505 2.837-3.041 5.909-5.974 8.664-9.097a13684 13684 0 0 1 24.229-27.374 865 865 0 0 0 18.643-21.527c3.941-4.646 8.04-9.656 12.334-13.968 2.518-2.528 5.004-2.227 8.302-2.071-1.719 1.586-2.173.531-3.81 1.303-4.045 1.651-13.441 13.714-16.988 17.704-13.303 14.721-25.856 30.565-39.336 45.201-2.318 2.517-4.99 5.569-7.064 8.288-3.252 3.144-9.803 9.399-9.626 13.905.129 3.281 1.924 4.354 3.707 6.472l-.123.404c-1.981-1.15-3.153-3.152-4.08-5.187-.608 2.299 2.564 4.521 3.907 6.242"/><path fill="#15261f" d="M402.969 388.133c.81-.296 1.512-.95 2.257-1.442l1.093.286c-17.581 20.639-37.187 35.486-63.167 43.877-7.243 2.339-17.956 5.402-25.493 5.815-.926-.007-1.281.039-2.181-.246 2.021-.705 1.606-.267 2.756-1.607 31.074-5.937 58.028-18.154 79.613-41.418 1.324-1.427 3.353-3.777 4.783-4.984z"/><path fill="#040605" d="M133.045 400.219c.839.646 2.353 4.025 2.947 5.208-.528-2.818-3.46-6.7-2.023-9.017 1.508 8.502 6.395 13.832 11.582 20.585 12.641 16.457 25.854 29.238 42.839 41.121a187 187 0 0 0 15.076 9.594 149 149 0 0 0 9.556 5.202 182 182 0 0 0 18.557 8.047c3.002 1.124 8.112 2.724 10.819 3.899-.701-.077-2.58-.413-3.054-.171.993.409 4.75 1.611 5.031 2.016l-.055.24c-1.754-.289-5.888-1.799-7.756-2.424-9.035-3.024-17.202-6.582-25.681-10.898a135 135 0 0 1-7.566-4.111c-7.449-3.773-19.53-12.733-25.983-17.961a212.7 212.7 0 0 1-37.57-39.274c-1.963-2.66-6.37-8.74-6.719-12.056"/><path fill="#1c3423" d="M464.25 267.167c2.78.677 4.539 1.326 6.032 4 3.716 6.652 7.258 13.914 10.764 20.647 1.072 2.06 7.06 12.841 7.427 14.214.895 1.464 3.778 6.693 4.43 8.246.046.991.18 2.115-.087 3.042-.779-1.056-2.851-5.122-3.58-6.479-5.72-9.896-10.846-20.336-16.197-30.442-1.727-3.261-3.155-6.8-5.592-9.611-1.851-2.136-4.418-2.168-7.007-2.314 1.637-.772 2.091.283 3.81-1.303"/><path fill="#75cf5e" d="M443.452 286.174c-.032 1.082-.047 1.908-.694 2.796-4.79 6.573-10.39 12.033-15.693 18.199l-15.816 18.262c-3.814 4.468-7.562 9.041-11.762 13.19-.938.927-1.223.968-2.435 1.042 2.074-2.719 4.746-5.771 7.064-8.288 13.48-14.636 26.033-30.48 39.336-45.201"/><path fill="#1c3423" d="M276.529 492.106c3.333.062 7.666.584 11.032.918 12.689 1.26 24.406-.061 37.01-1.191.357 1.184.062.647 1.075 1.57-15.163 2.015-37.079 2.875-52.128-.077 1.053-.111 1.785.139 2.759-.284z"/><path fill="#1c3423" d="M390.837 361.499c-1.343-1.721-4.515-3.943-3.907-6.242.927 2.035 2.099 4.037 4.08 5.187l.123-.404c6.954 1.836 22.257 3.235 29.898 3.986-2.23 4.742-5.464 10.076-8.527 14.385.372-1.859.676-2.675.911-4.712.294-.669 4.366-6.994 4.949-7.939-4.441-.306-24.315-2.387-27.527-4.261"/><defs><linearGradient id="g" x1="257.509" x2="257.017" y1="486.988" y2="490.497" gradientUnits="userSpaceOnUse"><stop offset="0" stop-color="#000a01"/><stop offset="1" stop-color="#2d462f"/></linearGradient></defs><path fill="url(#g)" d="m244.32 486.943.055-.24c-.281-.405-4.038-1.607-5.031-2.016.474-.242 2.353.094 3.054.171 3.527.642 8.472 2.3 12.224 3.163 7.506 1.726 14.313 2.9 21.907 4.085l-.252.936c-.974.423-1.706.173-2.759.284-6.025-.072-23.447-4.476-29.198-6.383"/><path fill="#1c3423" d="M293.754 436.274c3.695-.187 7.806.091 11.636-.107 4.485-.231 8.388-.769 12.844-1.351-1.15 1.34-.735.902-2.756 1.607.9.285 1.255.239 2.181.246-2.994.449-8.297 1.041-11.31.863-5.26.959-20.622-.144-26.157-.925-.798-.658-1-.441-1.659-1.271 1.481.108 2.012.204 3.424-.192 3.656.061 7.994.841 11.797 1.13"/><path fill="#15261f" d="M293.754 436.274c3.695-.187 7.806.091 11.636-.107 4.485-.231 8.388-.769 12.844-1.351-1.15 1.34-.735.902-2.756 1.607.9.285 1.255.239 2.181.246-2.994.449-8.297 1.041-11.31.863-1.291-.215-6.34-.285-8.132-.404l1.167-.088c-1.853-.18-3.838-.3-5.63-.766"/><path fill="#15261f" d="M492.903 314.274c5.866 10.567 11.323 21.204 17.029 31.847-1.39-.131-1.046-.17-2.36-1.08-1.566-2.38-5.485-10.141-7.003-13.022-1.954-3.71-6.35-11.305-7.753-14.703.267-.927.133-2.051.087-3.042"/><path fill="#1c3423" d="M478.981 370.193c5.642.911 11.533 1.514 17.194 2.385 2.577.397 5.805.662 8.289 1.29-.637.592-.57.585-.792 1.443-7.311-.812-17.329-3.018-23.847-3.516-.717 2.896-1.749 5.27-2.861 8.02-.467-.875-.171-.472-1.144-1.107a272 272 0 0 0 3.161-8.515"/><path fill="#1c3423" d="M475.82 378.708c.973.635.677.232 1.144 1.107-2.784 6.99-11.643 24.696-16.445 30.31-.391-1.01-.065-.592-1.164-1.165 5.676-7.315 13.03-21.715 16.465-30.252"/><path fill="#15261f" d="M507.572 345.041c1.314.91.97.949 2.36 1.08 2.966 5.368 5.27 10.715 8.107 16.041.681 1.33.783 2.357 1.063 3.819l-1.65-.409-.183-.899c-2.201-5.86-6.733-13.747-9.697-19.632"/><path fill="#1c3423" d="m324.571 491.833 18.203-3.195c.396 1.019.107.547 1.097 1.328-5.649 1.388-12.437 2.722-18.225 3.437-1.013-.923-.718-.386-1.075-1.57"/><path fill="#040605" d="M413.415 373.699c-.235 2.037-.539 2.853-.911 4.712a116 116 0 0 1-6.185 8.566l-1.093-.286c-.745.492-1.447 1.146-2.257 1.442 3.85-5.393 6.608-8.475 10.446-14.434"/><path fill="#040605" d="m517.452 365.572 1.65.409c-.247 5.128-2.558 8.375-7.547 9.914-.082-.838-.054-.746.032-1.6 3.902-1.2 6.068-4.728 5.865-8.723"/><path fill="#040605" d="M504.464 373.868c2.297.186 4.843.452 7.123.427-.086.854-.114.762-.032 1.6-2.636.033-5.259-.307-7.883-.584.222-.858.155-.851.792-1.443"/><path fill="#75cf5e" d="M462.22 274.593c.948.671 9.344 17.212 10.563 19.604a1134 1134 0 0 0 11.355 21.519 1689 1689 0 0 1 20.255 37.731c2.383 4.61 5.356 9.705 7.41 14.398-11.77.04-25.414-3.926-37.284-4.247-1.487 2.833-2.654 6.256-3.84 9.267a179 179 0 0 1-5.188 11.955c-32.017 66.476-106.19 107.42-179.418 101.411-53.383-4.38-97.103-27.6-131.422-68.333-4.39-5.413-10.889-12.938-12.928-19.452a20.5 20.5 0 0 1 1.54-15.897c5.791-10.816 21.884-12.952 31.767-6.681 6.404 4.772 10.591 13.104 15.756 19.128 32.457 37.859 84.902 56.624 133.997 47.499 42.127-7.831 80.488-34.297 100.918-72.201 1.24-2.301 4.655-8.198 3.951-10.572-2.461-2.309-31.058-4.429-36.151-5.047 1.694-2.949 6.288-8.207 8.622-10.881l12.7-14.405c15.545-17.693 32.734-36.667 47.397-54.796"/><path fill="#040605" d="M79.931 218.691c-2.746-.319-3.586-2.122-2.77-4.68 2.401-7.536 5.967-15.242 9.39-22.386a237.4 237.4 0 0 1 89.327-99.454 233.82 233.82 0 0 1 173.375-29.904c10.911 2.479 26.124 6.648 36.447 10.626a238.24 238.24 0 0 1 113.807 93.53c1.36 2.167 2.595 4.373 3.924 6.545 31.968 52.237 39.375 113.121 27.603 173.183-.787 3.783-1.536 10.986-6.959 9.237-1.537-.495-2.859-1.462-3.588-2.895-1.005-1.675.558-6.648 1.038-8.778 3.088-13.715 4.944-26.018 5.577-40.083 5.29-98.123-53.681-188.338-145.68-222.867-18.463-6.78-35.275-10.888-54.565-13.385C227.46 54.516 128.56 112.281 89.972 204.504c-1.903 4.548-3.612 9.486-6.095 13.684-.598.931-2.856.814-3.946.503"/><path fill="#83e46e" d="M230.983 68.629c4.908-1.939 14.32-4.034 19.405-5.13 22.147-4.776 44.778-6.594 67.378-4.743 6.455.53 13.414 1.144 19.792 2.4a235.26 235.26 0 0 1 153.517 94.7c2.258 3.097 10.837 15.67 12.191 18.719 2.191 2.782 8.122 15.236 9.898 18.994a232.58 232.58 0 0 1 20.39 127.002c-.577 4.814-4.076 30.896-6.853 33.367-.455.405-1.118.438-1.698.327-1.109-.213-2.099-.783-2.668-1.783-1.661-2.92 1.823-13.659 2.493-17.257a236 236 0 0 0 3.894-44.062c0-4.977-.665-11.459-.548-16.034-.829-6.543-1.317-12.949-2.343-19.519-6.577-42.131-25.044-79.701-52.69-112.208-5.714-6.865-13.895-14.799-20.43-20.798-11.867-11.043-25.992-20.059-39.736-28.507-.571-.198-4.747-2.472-5.578-2.93-3.703-2.046-7.175-3.706-10.961-5.515-10.497-5.015-21.048-8.393-32.005-12.147-4.202-1.013-8.162-2.244-12.521-3.237-10.988-2.227-18.996-3.342-30.005-4.664-9.051-.327-17.279-.874-26.449-.847-23.019.069-44.129 3.968-66.112 10.803-14.025 5.013-24.155 8.95-37.534 16.07-6.866 3.652-12.431 7.58-18.691 11.074-6.266 4.94-12.726 9.002-19.272 14.378a238.2 238.2 0 0 0-50.986 59.217 215.5 215.5 0 0 0-17.536 36.782c-.456 1.223-1.484 4.685-2.763 4.822l-3.469-1.138c2.878-5.26 4.802-13.572 7.804-19.145 1.004-1.865 1.587-4.856 2.662-6.687 4.796-8.172 9.302-16.536 14.357-24.551 3.251-5.122 7.742-9.96 10.894-15.103l.17-.283c.795-2.293 1.916-3.002 1.868-5.437.373-.647 2.905-3.636 3.448-4.28a210 210 0 0 1 20.246-20.7c5.502-5.047 21.562-18.539 27.867-22.06 1.856-1.48 6.164-4.058 8.234-5.352a232.4 232.4 0 0 1 45.837-21.882c2.224-.775 6.287-2.234 8.503-2.656"/><path fill="#75cf5e" d="M337.558 61.156a235.26 235.26 0 0 1 153.517 94.7c2.258 3.097 10.837 15.67 12.191 18.719l-1.074-.434c-1.076-1.813-4.262-6.662-5.231-8.147a282 282 0 0 0-17.48-23.856c-2.473-3.033-5.268-5.87-7.819-8.828-.259-.3-.353-.721-.801-1.036-2.453-1.724-3.849-4.466-6.281-6.309-.888-.137-.48-.207-1.266.198 12.315 12.103 22.722 24.254 32.26 38.645 1.246 1.88 4.56 6.998 5.437 8.853l-.162.357c-1.96-2.083-5.03-7.445-6.736-10.067-19.718-30.299-47.826-54.811-78.752-73.208-9.677-5.756-20.81-10.56-31.169-15.023-2.12-.913-11.104-4.184-12.269-5.014l.45-.56c-10.034-2.868-22.344-6.276-32.814-8.075-1.532-.264-.795.407-2.001-.915"/><path fill="#75cf5e" d="m473.141 143.402.816-.502.452.313c.709.484 1.074.689 1.885.982 6.273 6.682 12.214 15.711 17.339 23.383 19.517 29.218 31.888 63.106 35.244 98.087.037.385-.097.78-.238 1.128l-3.868-23.868c-.555 2.089-.4 1.37-.064 2.843 1.632 7.145 4.49 22.47 3.467 29.361-.829-6.543-1.317-12.949-2.343-19.519-6.577-42.131-25.044-79.701-52.69-112.208"/><path fill="#75cf5e" d="M364.431 73.505c.96.035 2.052-.017 2.726-.049 2.351-.112 9.066 2.32 11.282 3.223 3.379 1.377 7.814 2.437 10.765 3.647 7.51 3.08 20.177 8.861 26.633 13.321l.063.203c9.013 4.753 19.967 12.301 27.865 18.752.774.632 2.962 2.333 3.526 3.002 6.727 4.664 24.787 21.669 29.003 28.591-.811-.293-1.176-.498-1.885-.982l-.452-.313-.816.502c-5.714-6.865-13.895-14.799-20.43-20.798-11.867-11.043-25.992-20.059-39.736-28.507-.571-.198-4.747-2.472-5.578-2.93-3.703-2.046-7.175-3.706-10.961-5.515-10.497-5.015-21.048-8.393-32.005-12.147"/><path fill="#75cf5e" d="M168.409 98.518c1.856-1.48 6.164-4.057 8.234-5.35a232.4 232.4 0 0 1 45.837-21.883c2.224-.775 6.287-2.234 8.503-2.656-.311.72-.123.67-1.138.993-2.02.642-2.99.995-4.871 1.998l.373-.076c-3.803 2.015-7.366 3.207-11.303 4.845-6.334 2.636-12.672 5.314-18.768 8.474a665 665 0 0 0-15.149 8.285c-3.418 1.967-7.856 5.255-11.718 5.37"/><path fill="#75cf5e" d="M173.119 102.704c1.976-4.301 30.721-18.043 35.742-20.354-.338.155 1.052-.305 1.192-.378l.054-.373c-2.607-.228-27.885 13.61-31.745 15.96-1.015.619-1.895 1.82-3.261 1.931l-.008-.27c5.981-4.695 45.794-25.394 51.47-23.863l-1.673.754c1.993-.244 2.12-.466 4.454-.551-14.025 5.013-24.155 8.95-37.534 16.07-6.866 3.652-12.431 7.58-18.691 11.074"/><path fill="#75cf5e" d="M321.905 65.604c6.081-.43 12.181-.676 18.099.768 2.941.717 10.19 1.276 11.906 3.896-10.988-2.227-18.996-3.342-30.005-4.664"/><path fill="#75cf5e" d="M79.931 218.691c-1.056-.557-2.395-1.299-2.207-2.738.48-3.683 2.241-7.484 3.672-10.921a230.7 230.7 0 0 1 28.753-50.879c1.825-2.433 4.721-6.466 6.699-8.594.048 2.435-1.073 3.144-1.868 5.437l-.17.283c-3.152 5.143-7.643 9.981-10.894 15.103-5.055 8.015-9.56 16.379-14.357 24.551-1.075 1.831-1.658 4.822-2.662 6.687-3.002 5.573-4.926 13.885-7.804 19.145l3.47 1.138c-1.22.549-1.323.587-2.632.788"/><path fill="#83e46e" d="M66.756 334.199c-1.868-9.368-2.74-19.571-3.14-29.118a243 243 0 0 1-.052-18.515c.193-5.518 2.27-36.932 5.194-39.432 1.062-.908 2.931-.943 4.227-.659 1.051.231 1.862.789 2.431 1.716 1.44 2.341-.226 7.93-.94 10.475l-.084.288a236.5 236.5 0 0 0 1.98 82.153c1.428 2.946 2.23 8.403 3.217 11.753 2.905 9.867 5.86 19.707 9.624 29.294 4.77 11.077 11.683 23.233 18.098 33.457 23.304 37.143 52.442 61.965 90.954 82.297 2.562 1.688 7.544 3.59 10.529 5.066.718.04 4.095 1.542 4.989 1.914 11.918 4.961 23.905 8.119 36.322 11.483q6.713 1.437 13.492 2.526c1.208.197 6.852 1.011 7.665 1.304 1.056-.077 3.451.238 4.573.357 8.518.906 16.895 1.133 25.465 1.123 9.8.061 19.594-.515 29.319-1.726 21.065-2.787 50.374-11.264 69.326-21.083 1.346-.98 5.883-3.165 7.568-4.056a175 175 0 0 0 13.926-8.117c27.587-18.09 46.94-36.705 65.913-63.812 5.667-8.095 10.145-15.701 14.94-24.393 2.818-4.667 4.645-10.097 7.927-14.445 1.298-1.719 5.276-1.184 6.714.285.869 1.909-.49 5.291-1.348 7.13-13.688 29.321-33.86 57.661-58.054 78.926-10.653 9.8-24.62 19.054-37.018 26.51-4.614 2.774-9.737 5.692-14.534 8.094a237.16 237.16 0 0 1-117.398 24.51c-11.39-.481-41.652-4.201-52.394-8.064-1.939-.458-3.514-.98-5.404-1.6a273 273 0 0 1-15.056-5.077c-9.401-4.012-18.747-7.253-27.621-12.733-2.777-.658-15.06-8.768-18.091-10.825-12.687-8.604-26.743-19.879-37.616-30.657a239 239 0 0 1-52.707-79.476c-2.38-6.675-4.782-12.245-6.815-19.112-1.828-7.156-5.468-20.704-6.121-27.761"/><path fill="#75cf5e" d="M76.371 341.107c1.43 2.946 2.23 8.403 3.218 11.753 2.905 9.867 5.86 19.707 9.624 29.294 4.77 11.077 11.683 23.233 18.098 33.457 23.304 37.143 52.442 61.965 90.954 82.297-3.899.144-3.789-1.403-5.887-1.47 1.075.538 1.582.842 2.589 1.505-3.804-.091-20.239-11.359-25.145-13.346-.709-.287-2.619-2.261-3.457-2.754-4.506-2.657-8.311-6.263-12.344-9.558-6.158-5.196-12.801-10.582-18.376-16.396a249 249 0 0 1-49.584-73.683c-.883-1.983-4.828-11.114-4.789-12.887 2.665 5.727 4.602 11.624 7.374 17.482 10.341 21.857 23.505 42.156 39.501 60.294 1.554 1.763 3.875 4.442 5.65 5.81l.309-.075c-.547-1.092-5.874-6.613-7.222-8.169a213 213 0 0 1-9.754-11.997c-14.872-19.535-26.146-39.992-34.393-63.198-.966-2.72-.689-5.927-1.521-8.277-1.518-4.285-4.813-15.863-4.845-20.082"/><path fill="#181518" d="M455.73 469.861c1.371.043.813-.19 1.801.529-10.653 9.8-24.62 19.054-37.018 26.51-4.614 2.774-9.737 5.692-14.534 8.094a237.16 237.16 0 0 1-117.398 24.51c-11.39-.481-41.652-4.201-52.394-8.064-1.939-.458-3.514-.98-5.404-1.6a273 273 0 0 1-15.056-5.077l-.352-1.873c4.25 1.535 10.77 3.569 14.645 5.156 1.598.442 3.705.958 5.241 1.46 5.971 1.629 14.586 4.083 20.669 4.865 1.475.576 10.519 1.858 12.329 2.091a234.3 234.3 0 0 0 136.742-22.681c7.499-3.733 19.577-10.215 26.256-15.364 3.126-1.109 21.269-15.869 24.473-18.556"/><path fill="#040605" d="M399.945 498.872c1.346-.98 5.883-3.165 7.568-4.056a175 175 0 0 0 13.926-8.117c27.587-18.09 46.94-36.705 65.913-63.812 5.667-8.095 10.145-15.701 14.94-24.393 2.818-4.667 4.645-10.097 7.927-14.445 1.298-1.719 5.276-1.184 6.714.285.869 1.909-.49 5.291-1.348 7.13-13.688 29.321-33.86 57.661-58.054 78.926-.988-.719-.43-.486-1.801-.529 14.231-11.863 33.49-34.059 42.821-50.083 3.186-3.529 17.141-29.792 18.076-34.636-.547-2.164-5.011-2.162-6.017-.364-3.1 5.538-5.499 11.384-8.556 16.968-10.79 18.156-21.809 35.331-36.929 50.268-6.966 6.881-14.392 14.379-22.281 20.184-5.332 4.269-12.602 9.484-18.354 13.227-4.827 3.11-19.274 11.797-24.545 13.447"/><path fill="#181518" d="m79.692 381.072 1.792.357c2.18 5.189 4.858 11.531 7.625 16.477 1.584 4.141 6.458 12.465 8.79 16.352a234.9 234.9 0 0 0 66.575 71.299c2.615 1.832 9.987 6.969 12.787 8.274 4.167 3.055 9.061 5.184 13.337 7.809-1.347.704-1.253.219-2.492.39-2.777-.658-15.06-8.768-18.091-10.825-12.687-8.604-26.743-19.879-37.616-30.657a239 239 0 0 1-52.707-79.476"/><path fill="#040605" d="M66.756 334.199c-1.868-9.368-2.74-19.571-3.14-29.118a243 243 0 0 1-.052-18.515c.193-5.518 2.27-36.932 5.194-39.432 1.062-.908 2.931-.943 4.227-.659 1.051.231 1.862.789 2.431 1.716 1.44 2.341-.226 7.93-.94 10.475l-.084.288.015-.357c.1-1.949 3.59-16.191-4.65-10.776-1.373.903-1.508 5.411-1.807 7.275a258.7 258.7 0 0 0-1.91 61.682l1.01 10.144c1.528 8.782 2.767 17.363 5.207 25.975.369 1.3 1.04 3.682 1.22 4.976-.979 1.318-.712 2.371-.6 4.087-1.828-7.156-5.468-20.704-6.121-27.761"/><path fill="#75cf5e" d="M431.257 488.417c-.236-1.702 20.982-14.729 22.771-18.725-1.37.908-4.42 3.488-5.479 4.658l-.441-.124c1.562-2.26 6.661-6.226 8.886-8.443 4.569-4.553 9.452-9.138 13.826-13.864 5.756-6.219 10.972-12.082 16.033-18.884 1.265-1.7 6.127-8.931 7.207-9.986l.106.426c-1.065 4.266-9.146 13.068-11.766 16.887l.21.148c4.103-4.063 7.526-9.758 10.899-14.455 1.192-1.659 3.324-5.613 5.042-6.277-9.331 16.024-28.59 38.22-42.821 50.083-3.204 2.687-21.347 17.447-24.473 18.556"/><path fill="#75cf5e" d="M502.054 401.746c-.281 4.012-14.133 23.996-17.191 28.228-1.792 2.479-4.466 5.253-6.095 8.232 7.378-7.624 13.418-18.356 19.353-27.171.45-.668 3.343-5.812 3.319-5.789.531 1.34-6.301 11.533-7.255 13.048-10.868 17.25-24.554 32.853-39.608 46.567-1.496 1.36-6.58 6.184-7.955 7.078-1.623-.06-2.161.012-3.778.259 7.889-5.805 15.315-13.303 22.281-20.184 15.12-14.937 26.139-32.112 36.929-50.268"/><path fill="#75cf5e" d="M208.794 502.974c.718.04 4.095 1.542 4.989 1.914 11.918 4.961 23.905 8.119 36.322 11.483q6.713 1.437 13.492 2.526c1.208.197 6.852 1.011 7.665 1.304-8.55.921-14.239-.14-22.464-2.038-2.927-.675-5.987-.96-8.938-1.909-1.56-.036-23.769-7.479-26.434-8.991-2.397-1.36-.922-2.308-3.103-3.315-.667-.309-.969-.478-1.529-.974"/><path fill="#75cf5e" d="m89.109 397.906.534-.059c1.37 2.281 2.004 4.383 3.556 6.635 1.687 2.447 2.955 5.584 4.53 8.178 17.29 28.461 39.949 53.897 67.676 72.517 1.185.795 1.459 1.455 2.894 2.132l.466-.056.002-.422c-.895-.735-2.233-1.706-3.127-2.213-3.731-2.113-26.351-19.92-26.827-22.42 6.383 5.629 13.179 11.685 19.911 16.894 5.023 3.886 11.283 7.428 16.306 11.414 1.045.83 2.029 1.965 2.231 3.325-2.8-1.305-10.172-6.442-12.787-8.274a234.9 234.9 0 0 1-66.575-71.299c-2.332-3.887-7.206-12.211-8.79-16.352"/><path fill="#75cf5e" d="M212.273 511.662c7.372-.656 18.129 5.529 25.687 7.19 3.594.79 14.317 2.952 16.812 4.71l1.158.809c-6.083-.782-14.698-3.236-20.669-4.865-1.536-.502-3.643-1.018-5.241-1.46-3.875-1.587-10.395-3.621-14.645-5.156z"/><path fill="#040605" d="M188.106 502.03c1.239-.171 1.145.314 2.492-.39 6.941 3.57 14.356 7.263 21.675 10.022l3.102 1.228.352 1.873c-9.401-4.012-18.747-7.253-27.621-12.733"/><path fill="#75cf5e" d="M442.844 472.198c1.617-.247 2.155-.319 3.778-.259-5.255 4.224-12.484 10.095-18.745 12.885-.412.183-2.812.52-3.387.601 5.752-3.743 13.022-8.958 18.354-13.227"/><path fill="#181518" d="M72.877 361.96c-.112-1.716-.379-2.769.6-4.087 2.426 7.557 4.804 16.28 8.007 23.556l-1.792-.357c-2.38-6.675-4.782-12.245-6.815-19.112"/></svg>