<?xml version="1.0" encoding="utf-8" ?><svg xmlns="http://www.w3.org/2000/svg" xmlns:xlink="http://www.w3.org/1999/xlink" width="1365" height="1024" viewBox="0 0 1365 1024"><clipPath id="cl_3"><rect width="1365" height="1024"/></clipPath><g clip-path="url(#cl_3)"><defs><linearGradient id="gradient_0" gradientUnits="userSpaceOnUse" x1="181.05904" y1="519.42755" x2="586.43311" y2="467.59067"><stop offset="0" stop-color="#FCB746" stop-opacity="0.71764708"/><stop offset="1" stop-color="#FBB849" stop-opacity="0.74901962"/></linearGradient></defs><path fill="url(#gradient_0)" transform="matrix(0.999756 0 0 1 -85.3125 0)" d="M369.356 287.805C482.994 279.819 581.703 365.228 590.162 478.86C598.62 592.491 513.645 691.581 400.077 700.516C285.837 709.504 186.056 623.894 177.548 509.589C169.039 395.284 255.045 295.838 369.356 287.805ZM394.838 688.946C502.194 682.986 584.431 591.167 578.594 483.778C572.758 376.389 481.055 294.028 373.686 299.744C266.144 305.469 183.641 397.374 189.487 504.936C195.333 612.498 287.31 694.916 394.838 688.946Z"/><path fill="#A286FE" transform="matrix(0.999756 0 0 1 -85.3125 0)" d="M381.796 346.918C382.419 346.891 383.043 346.88 383.667 346.885C425.213 347.066 460.593 377.459 460.131 420.361C460.007 431.841 460.19 443.656 460.165 455.175C463.489 455.34 466.525 455.652 469.671 456.808C474.987 458.76 479.7 462.725 481.979 467.99C485.393 475.88 484.73 579.448 483.837 592.684C483.678 595.035 483.362 597.118 482.471 599.323C480.08 605.242 476.227 608.305 470.423 610.675C468.652 611.398 466.475 612.413 464.681 611.667C464.83 606.912 471.821 600.659 471.294 592.634C469.882 571.142 448.568 574.267 432.68 574.32L392.978 574.473C392.801 563.897 392.548 553.358 392.823 542.782C404.188 536.615 406.579 530.121 403.667 517.523C398.084 506.655 387.525 501.313 375.822 506.404C370.611 508.642 366.55 512.926 364.592 518.249C360.735 528.552 364.114 538.596 375.14 542.054C375.17 552.883 375.296 563.712 375.518 574.539L363.497 574.57C360.036 567.688 357.854 563.615 352.082 558.13C342.938 549.425 330.684 544.758 318.069 545.174C303.104 545.663 293.337 551.313 283.343 561.853C282.515 546.997 282.597 527.764 282.997 512.773C283.599 490.196 275.704 457.302 307.424 455.177C306.165 426.133 304.261 393.953 324.875 371.783C341.456 353.95 358.634 348.292 381.796 346.918ZM334.648 455.309L387.375 455.289L432.973 455.252C433.125 432.66 436.521 405.931 419.254 389.345C409.615 380.086 396.914 375.844 383.739 376.005C382.791 376.018 381.843 376.06 380.897 376.132C367.073 377.4 355.632 381.045 346.23 391.943C331.36 409.178 335.011 433.636 334.648 455.309Z"/><path fill="#A286FE" transform="matrix(0.999756 0 0 1 -85.3125 0)" d="M310.627 554.538C334.049 552.7 350.833 559.551 358.726 582.975C372.165 583.204 454.495 581.224 459.027 584.731C461.338 586.52 462.63 589.171 463.01 592.037C463.414 595.078 462.883 598.842 460.795 601.217C457.685 604.755 452.707 604.733 448.388 604.947C448.594 612.333 449.49 619.486 444.083 625.433C439.709 630.245 433.357 630.198 428.926 625.448C423.227 619.338 423.883 612.525 424.045 604.829L359.075 604.823C357.953 608.43 357.048 611.074 355.233 614.412C350.125 623.867 341.424 630.864 331.094 633.821C319.926 636.945 307.975 635.489 297.882 629.778C288.178 624.222 281.124 614.985 278.318 604.158C272.228 579.87 287.36 560.372 310.627 554.538ZM322.934 614.078C330.185 612.711 336.138 607.544 338.515 600.557C340.893 593.57 339.326 585.844 334.414 580.336C329.503 574.828 322.007 572.391 314.797 573.957C303.858 576.334 296.858 587.059 299.083 598.032C301.309 609.005 311.934 616.153 322.934 614.078Z"/><path fill="#744DFB" transform="matrix(0.999756 0 0 1 -85.3125 0)" d="M1213.15 438.557C1241.13 436.637 1265.4 457.7 1267.44 485.681C1269.49 513.661 1248.54 538.032 1220.58 540.203C1192.43 542.389 1167.88 521.271 1165.82 493.113C1163.76 464.955 1184.99 440.489 1213.15 438.557ZM1220.64 523.068C1225.79 521.624 1230.81 520.196 1234.55 516.25C1253.69 496.046 1246.46 452.277 1212.82 455.425C1175.91 462.004 1179.79 527.544 1220.64 523.068Z"/><path fill="#744DFB" transform="matrix(0.999756 0 0 1 -85.3125 0)" d="M1309.82 437.714C1329.64 436.217 1345.77 446.954 1347.82 467.355C1341.08 467.39 1335.68 468.112 1328.53 467.832C1326.52 466.115 1326.54 461.781 1324.34 459.56C1318.23 453.411 1304.94 453.49 1298.62 459.128C1296.88 460.684 1295.18 464.755 1295.69 466.813C1298.62 478.528 1319.85 477.332 1329.14 481.788C1334.86 483.806 1339.21 486.385 1343.56 490.715C1354.32 501.419 1350.69 522.281 1340.13 531.835C1332.82 538.451 1321.56 541.606 1311.65 541.137C1290.23 540.231 1277.11 532.546 1272.62 510.817C1278.53 509.792 1286.58 509.427 1293.02 508.553C1294.24 512.67 1295 516.188 1298.28 519.136C1302.5 522.921 1308.08 524.817 1313.72 524.384C1319.12 524.036 1324.13 521.452 1327.55 517.254C1331.73 512.103 1329.92 503.086 1323.64 500.36C1309.28 494.127 1277.12 493.164 1275.25 472.219C1273.25 449.681 1290.19 440.027 1309.82 437.714Z"/><path fill="#744DFB" transform="matrix(0.999756 0 0 1 -85.3125 0)" d="M682.393 539.241C681.446 539.197 677.643 540.1 676.372 540.288C660.123 542.967 641.053 538.09 630.703 524.174C604.235 488.589 625.215 433.329 673.389 438.093C693.945 441.848 706.923 451.443 709.86 473.27C703.125 473.307 695.588 473.199 688.935 473.564C686.028 459.915 675.862 452.833 661.846 455.608C638.884 460.154 634.337 494.697 645.573 511.474C651.307 520.452 664.159 525.231 674.191 522.39C679.457 520.887 683.913 517.36 686.585 512.579C687.925 510.177 688.773 506.931 689.344 504.266L710.313 504.497C707.295 518.124 702.941 527.138 690.682 535.008C688.05 536.662 685.276 538.079 682.393 539.241Z"/><path fill="#744DFB" transform="matrix(0.999756 0 0 1 -85.3125 0)" d="M832.571 461.69L833.971 461.634C868.292 460.407 870.052 480.188 868.747 508.263C868.302 517.842 868.708 528.923 868.999 538.601L850.775 538.61C850.635 536.319 850.814 533.978 849.571 532.2C834.903 544.486 811.532 546.182 803.688 525.717C802.473 521.534 802.181 514.29 803.535 510.495C810.346 491.4 833.445 496.928 847.674 490.71C849.619 489.859 850.045 488.032 850.451 486.281C848.877 477.218 833.348 473.295 826.826 479.083C824.679 480.788 822.894 487.113 820.822 488.623C817.868 490.775 806.875 488.551 803.019 488.154C806.866 470.219 814.441 464.111 832.571 461.69ZM825.648 524.398C834.369 527.686 839.617 525.916 846.98 520.641C849.095 516.817 851.912 508.426 850.106 504.266L849.287 504.197C841.725 505.786 826.059 507.432 822.134 514.144C821.368 515.456 821.164 517.021 821.568 518.485C822.239 521.004 823.705 522.732 825.648 524.398Z"/><path fill="#744DFB" transform="matrix(0.999756 0 0 1 -85.3125 0)" d="M722.34 439L741.495 438.96L741.626 471.794C757.397 455.193 785.23 458.738 789.307 480.555C792.019 495.064 790.358 522.845 790.426 538.62L771.192 538.616L771.174 508.812C771.329 493.429 774.821 482.296 757.275 477.396C734.774 483.68 741.459 518.711 741.642 538.633L722.359 538.597L722.34 439Z"/><path fill="#744DFB" transform="matrix(0.999756 0 0 1 -85.3125 0)" d="M1140.44 462.358C1147.36 462.344 1154.29 462.382 1161.22 462.472C1154.55 481.214 1147.77 499.913 1140.86 518.566C1138.68 524.823 1136.1 531.738 1134.04 537.948C1126.27 561.396 1118.52 567.279 1094.26 566.888L1094.33 550.237C1125.49 548.48 1108.06 532.147 1104.09 514.362C1102.02 505.039 1086.53 469.868 1086.77 463.62C1089.16 462.105 1090.07 462.599 1093.25 462.488L1106.87 462.349C1112.32 480.176 1117.73 499.412 1123.86 516.853C1129.48 498.717 1135.01 480.552 1140.44 462.358Z"/><path fill="#744DFB" transform="matrix(0.999756 0 0 1 -85.3125 0)" d="M907.347 461.668C928.997 460.505 939.22 465.959 944.131 487.295C937.993 487.518 931.861 487.85 925.735 488.29C924.738 485.021 924.713 483.626 922.061 480.407C917.077 474.358 900.246 475.663 900.629 484.722C901.774 491.098 915.821 493.473 920.963 494.119C942.494 496.825 950.597 513.838 938.253 531.589C933.45 538.495 923.02 540.508 914.393 541.048C909.277 542.151 896.493 540.005 891.79 536.809C882.664 530.609 880.567 527.092 877.852 517.085C884.007 516.568 891.252 515.113 896.931 515.006C898.568 517.052 897.804 519.201 900.48 521.594C906.156 526.67 917.356 527.208 922.793 521.552C924.269 520.017 924.67 517.638 924.418 515.541C919.69 505.357 884.493 510.533 881.573 489.849C879.003 471.649 891.478 464.101 907.347 461.668Z"/><path fill="#744DFB" transform="matrix(0.999756 0 0 1 -85.3125 0)" d="M1044.88 446.507L1063.41 446.485L1063.34 462.651L1079.73 462.23C1079.41 466.589 1079.2 473.539 1079.69 477.759L1063.45 477.742C1063.38 486.667 1061.75 516.744 1066.13 522.181C1070.39 524.83 1074.37 523.469 1079.32 522.619L1079.31 531.091C1079.4 533.303 1079.88 537.83 1078.61 539.483C1068.17 543.425 1047.81 540.018 1046.03 527.176C1043.89 511.823 1044.91 493.474 1044.99 477.733L1034.4 477.779L1034.39 462.349L1044.97 462.398L1044.88 446.507Z"/><path fill="#744DFB" transform="matrix(0.999756 0 0 1 -85.3125 0)" d="M961.372 446.557L979.926 446.526L979.621 462.374L994.28 462.441L994.419 477.729L979.689 477.722C980.223 490.619 978.972 503.585 980.152 516.403C980.949 525.06 988.262 523.424 994.412 522.298L994.391 535.068C994.42 537.493 994.742 536.96 993.726 538.861C990.357 540.718 986.598 540.987 983.005 541.101C966.676 541.243 960.485 531.407 960.768 516.175C961.005 503.439 960.938 490.367 960.981 477.725L951.324 477.737L951.16 462.448L961.058 462.379C960.924 457.241 961.208 451.722 961.372 446.557Z"/><path fill="#744DFB" transform="matrix(0.999756 0 0 1 -85.3125 0)" d="M1006.54 462.569C1008.82 462.905 1022.76 462.503 1025.72 462.465L1025.77 537.66L1025.55 538.018C1023.28 538.997 1009.95 538.595 1006.53 538.576L1006.54 462.569Z"/><path fill="#744DFB" transform="matrix(0.999756 0 0 1 -85.3125 0)" d="M1014.6 437.499C1020.72 437.357 1025.87 438.7 1028.53 444.836C1029.51 447.059 1029.55 449.583 1028.63 451.834C1027.13 455.561 1024.1 456.999 1020.73 458.475C1016.71 458.495 1013.69 458.216 1009.67 457.829C1001.43 449.049 1002.64 441.277 1014.6 437.499Z"/></g></svg>